<svg xmlns="http://www.w3.org/2000/svg" xmlns:xlink="http://www.w3.org/1999/xlink" width="0" height="0" style="position:absolute">

<symbol id="icon-instagram" viewBox="0 0 32 32">
  <path d="M21.939 5H11.06a6.144 6.144 0 00-6.06 6.192v10.616A6.147 6.147 0 0011.06 28H21.94a6.144 6.144 0 006.06-6.192V11.192A6.148 6.148 0 0021.94 5zm3.999 16.66a4.256 4.256 0 01-4.195 4.29H11.257a4.253 4.253 0 01-4.195-4.29V11.347a4.256 4.256 0 014.195-4.29h10.486a4.253 4.253 0 014.195 4.29V21.66z"/>
  <path d="M16.494 10.597a5.907 5.907 0 00-5.933 6.984 5.91 5.91 0 008.041 4.395 5.908 5.908 0 003.676-5.472 5.85 5.85 0 00-5.784-5.908zm0 9.717a3.81 3.81 0 01-2.798-6.478 3.81 3.81 0 016.531 2.668 3.767 3.767 0 01-3.733 3.81zM22.589 11.611c.721 0 1.306-.597 1.306-1.333s-.585-1.333-1.306-1.333c-.721 0-1.306.597-1.306 1.333s.585 1.333 1.306 1.333z"/>
</symbol>

<symbol id="icon-twitter" viewBox="0 0 32 32">
  <path d="M28.314 6.385a10.141 10.141 0 01-3.26 1.286 5.061 5.061 0 00-1.698-1.235A5.022 5.022 0 0021.31 6a5.179 5.179 0 00-3.65 1.583 5.27 5.27 0 00-1.478 3.722c-.002.407.042.813.13 1.21a14.362 14.362 0 01-5.882-1.621A14.489 14.489 0 015.733 6.97a5.437 5.437 0 00-.565 3.853 5.398 5.398 0 002.153 3.232 5.068 5.068 0 01-2.325-.66v.06a5.297 5.297 0 001.141 3.341 5.216 5.216 0 002.977 1.861 4.89 4.89 0 01-1.35.186c-.325 0-.65-.033-.97-.096a5.195 5.195 0 001.809 2.622 5.122 5.122 0 002.987 1.06 10.085 10.085 0 01-3.574 1.874 10.03 10.03 0 01-4.016.32A14.212 14.212 0 0011.862 27c9.438 0 14.594-8.084 14.594-15.1 0-.234 0-.462-.013-.688A10.616 10.616 0 0029 8.467a9.94 9.94 0 01-2.947.832 5.21 5.21 0 002.26-2.914z"/>
</symbol>

<symbol id="icon-arena" viewBox="0 0 32 32">
  <path d="M31.691 19.613L27.255 16.3c-.272-.202-.272-.534 0-.737l4.436-3.313c.273-.203.386-.546.253-.761-.133-.215-.505-.291-.825-.17l-5.275 1.997c-.32.123-.623-.044-.671-.37l-.793-5.353c-.05-.326-.307-.592-.573-.592-.266 0-.523.266-.57.592l-.794 5.353c-.049.326-.35.493-.672.37l-5.188-1.963c-.321-.122-.845-.122-1.166 0l-5.189 1.964c-.32.122-.623-.045-.671-.37l-.793-5.354C8.715 7.266 8.458 7 8.193 7c-.267 0-.524.266-.572.592l-.794 5.353c-.048.326-.35.493-.67.37L.88 11.32c-.32-.122-.692-.045-.825.17-.133.215-.02.557.252.76l4.437 3.313c.271.203.271.535 0 .738L.308 19.613c-.272.203-.385.566-.252.806.133.241.504.338.825.216l5.227-1.996c.322-.122.62.044.665.37l.754 5.4a.7.7 0 00.664.591c.32 0 .618-.266.664-.591l.756-5.4c.044-.326.344-.492.664-.37l5.142 1.962c.32.122.844.122 1.165 0l5.141-1.962c.32-.122.62.044.665.37l.755 5.4c.046.325.345.591.663.591a.7.7 0 00.664-.591l.756-5.4c.046-.326.344-.492.664-.37l5.229 1.996c.319.122.691.025.824-.216.134-.24.02-.602-.252-.805zm-11.286-3.272l-3.907 2.86c-.274.2-.722.2-.995 0l-3.908-2.86c-.273-.2-.275-.53-.004-.733l3.915-2.932a.875.875 0 01.987 0l3.916 2.932c.271.203.27.533-.005.734z"/>
</symbol>

<symbol id="icon-soundcloud" viewBox="0 0 32 32">
    <path d="M1.547 22.48a.134.134 0 00.133-.133l.36-2.8-.36-2.88a.143.143 0 00-.133-.134.143.143 0 00-.134.134l-.32 2.88.32 2.8c0 .08.067.133.134.133zM.36 21.413c.067 0 .12-.053.133-.12l.267-1.746-.267-1.774c-.013-.08-.066-.133-.133-.133s-.12.053-.133.133L0 19.547l.24 1.746c0 .067.053.134.133.134l-.013-.014zm2.6-5.28c0-.093-.08-.16-.16-.16s-.147.067-.16.16l-.293 3.414.293 3.28c0 .093.08.16.16.16s.147-.067.16-.147l.347-3.293-.347-3.414zm1.107 6.987c.106 0 .186-.08.186-.187l.32-3.386-.32-3.507a.182.182 0 00-.186-.187.186.186 0 00-.187.187l-.28 3.507.28 3.386a.19.19 0 00.187.187zm1.28.053a.21.21 0 00.213-.213l.307-3.413-.307-3.254a.21.21 0 00-.213-.213.213.213 0 00-.214.213l-.266 3.254.266 3.413c0 .133.094.213.214.213zm1.813-3.626l-.28-5.28c0-.134-.12-.24-.24-.24-.133 0-.24.093-.253.24l-.24 5.28.24 3.413a.26.26 0 00.253.24c.133 0 .227-.107.24-.24l.28-3.413zm.773 3.666c.134 0 .267-.12.267-.266l.267-3.4-.267-6.494a.267.267 0 10-.533 0l-.24 6.494.24 3.4c0 .146.133.266.266.266zm1.307-11a.296.296 0 00-.293.294l-.214 7.04.214 3.36c0 .173.133.293.293.293.16 0 .293-.133.293-.293l.254-3.36-.254-7.04a.296.296 0 00-.293-.294zm1.333 11c.16 0 .307-.133.307-.32l.227-3.333-.227-7.28a.32.32 0 00-.32-.333.327.327 0 00-.32.333l-.2 7.267.2 3.333c0 .187.133.333.32.333h.013zm1.32 0c.187 0 .347-.16.347-.36l.213-3.306-.213-7.094a.347.347 0 00-.347-.346.347.347 0 00-.36.346l-.173 7.094.173 3.306c0 .2.16.36.36.36zm1.907-3.666l-.187-6.827a.386.386 0 00-.386-.373.386.386 0 00-.374.373l-.173 6.827.173 3.293a.38.38 0 00.76 0l.187-3.293zm.787 3.68a.4.4 0 00.4-.4l.173-3.28-.173-8.134a.4.4 0 00-.8 0l-.16 8.134.146 3.266c0 .227.187.4.4.4l.014.014zm1.333-12.974a.44.44 0 00-.427.44l-.186 8.854.186 3.226c0 .227.2.427.427.427.24 0 .44-.2.44-.427l.187-3.226-.187-8.854a.44.44 0 00-.44-.44zm1.24 12.974h10.907a3.933 3.933 0 10-1.52-7.56 6.934 6.934 0 00-9.44-5.867c-.294.12-.374.24-.374.467V22.76c0 .24.187.44.427.467z" fill="currentColor"/>
</symbol>


<symbol id="icon-heart" viewBox="0 0 32 32">
  <path d="M24.38 8.591a5.533 5.533 0 00-1.792-1.177 5.61 5.61 0 00-4.23 0c-.671.273-1.28.673-1.793 1.177L15.5 9.638 14.435 8.59a5.576 5.576 0 00-3.908-1.59 5.576 5.576 0 00-3.908 1.59A5.384 5.384 0 005 12.431c0 1.441.582 2.823 1.619 3.841l1.065 1.047L15.5 25l7.816-7.681 1.065-1.047a5.424 5.424 0 001.198-1.761 5.348 5.348 0 000-4.158 5.423 5.423 0 00-1.198-1.762v0z" stroke-width="2" stroke-linecap="round" stroke-linejoin="round"/>
</symbol>


<symbol id="icon-ig-left" viewBox="0 0 32 32">
  <path fill-rule="evenodd" clip-rule="evenodd" d="M16 4C9.373 4 4 9.373 4 16s5.373 12 12 12 12-5.373 12-12S22.627 4 16 4zm2 18.414L19.414 21l-5-5 5-5L18 9.586 11.586 16 18 22.414z" />
</symbol>

<symbol id="icon-ig-right" viewBox="0 0 32 32">
  <path fill-rule="evenodd" clip-rule="evenodd" d="M16 28c6.627 0 12-5.373 12-12S22.627 4 16 4 4 9.373 4 16s5.373 12 12 12zM14 9.586L12.586 11l5 5-5 5L14 22.414 20.414 16 14 9.586z"/>
</symbol>

<symbol id="icon-music-play" viewBox="0 0 48 48">
  <circle cx="24" cy="24" r="24" fill="#0FBDA8"/>
  <path d="M18.75 16.093a1 1 0 011.545-.839l12.165 7.908a1 1 0 010 1.676l-12.165 7.908a1 1 0 01-1.545-.839V16.093z" fill="#EEF7F0"/>
</symbol>

<symbol id="icon-music-pause" viewBox="0 0 48 48">
  <circle cx="24" cy="24" r="24" fill="#0FBDA8"/>
  <path fill-rule="evenodd" clip-rule="evenodd" d="M20.75 14.25a1 1 0 011 1v17.5a1 1 0 01-1 1h-2.5a1 1 0 01-1-1v-17.5a1 1 0 011-1h2.5zm9 0a1 1 0 011 1v17.5a1 1 0 01-1 1h-2.5a1 1 0 01-1-1v-17.5a1 1 0 011-1h2.5z" fill="#EEF7F0"/>
</symbol>

<symbol id="icon-music-song" viewBox="0 0 32 32">
  <path d="M7.333 26.667a3.333 3.333 0 100-6.667 3.333 3.333 0 000 6.667zM23.333 24a3.333 3.333 0 100-6.667 3.333 3.333 0 000 6.667z" stroke="currentColor" fill="none" stroke-width="2" stroke-linecap="round" stroke-linejoin="round"/>
  <path d="M10.667 22.667v-16l16-2.667v16" fill="none" stroke-width="2" stroke-linecap="round" stroke-linejoin="round"/>
</symbol>

<symbol id="icon-music-queue" viewBox="0 0 32 32">
  <path d="M6.667 4l18.666 12L6.667 28V4z" stroke-width="2" stroke-linecap="round" stroke-linejoin="round"/>
</symbol>


<symbol id="icon-project-folder" viewBox="0 0 128 100">
  <path d="M48.117 9.767c-1.795 0-3.16-1.995-4.656-4.181-.8-1.168-1.636-2.39-2.595-3.393-.28-.313-.589-.6-.923-.855C38.938.528 37.795 0 36.438 0v.016A6.665 6.665 0 0035.971 0H6.54C2.927 0 0 2.915 0 6.512v89.302a3.73 3.73 0 003.737 3.72h120.526a3.729 3.729 0 003.737-3.72V16.279c0-3.596-2.928-6.512-6.54-6.512H48.117z" fill="#373460"/>
  <path d="M0 22.79c0-3.596 2.928-6.51 6.54-6.51h114.92c3.612 0 6.54 2.914 6.54 6.51v73.49a3.729 3.729 0 01-3.737 3.72H3.737A3.73 3.73 0 010 96.28V22.79z" fill="#675EC9"/>
</symbol>


</svg>
