<svg viewBox="0 0 15 15" fill="currentColor" xmlns="http://www.w3.org/2000/svg">
<path fill-rule="evenodd" clip-rule="evenodd" d="M1.37501 7.5C1.37501 4.40886 4.17462 2 7.50001 2C10.8254 2 13.625 4.40886 13.625 7.5C13.625 10.5909 10.8259 12.9996 7.50086 13C6.56316 13.0031 5.636 12.8082 4.7798 12.4289L1.97307 12.9903C1.79505 13.0259 1.61172 12.9622 1.49411 12.8239C1.3765 12.6856 1.3431 12.4944 1.40684 12.3244L2.18811 10.241C1.67293 9.43673 1.37501 8.50062 1.37501 7.5ZM5 8.25C5.41421 8.25 5.75 7.91421 5.75 7.5C5.75 7.08579 5.41421 6.75 5 6.75C4.58579 6.75 4.25 7.08579 4.25 7.5C4.25 7.91421 4.58579 8.25 5 8.25ZM8.25 7.5C8.25 7.91421 7.91421 8.25 7.5 8.25C7.08579 8.25 6.75 7.91421 6.75 7.5C6.75 7.08579 7.08579 6.75 7.5 6.75C7.91421 6.75 8.25 7.08579 8.25 7.5ZM10 8.25C10.4142 8.25 10.75 7.91421 10.75 7.5C10.75 7.08579 10.4142 6.75 10 6.75C9.58579 6.75 9.25 7.08579 9.25 7.5C9.25 7.91421 9.58579 8.25 10 8.25Z" fill="currentColor"/>
</svg>
