<svg viewBox="0 0 15 15" fill="currentColor" xmlns="http://www.w3.org/2000/svg">
<path fill-rule="evenodd" clip-rule="evenodd" d="M4 2H11C12.1046 2 13 2.89543 13 4V11C13 12.1046 12.1046 13 11 13H4C2.89543 13 2 12.1046 2 11V4C2 2.89543 2.89543 2 4 2ZM4 3C3.44772 3 3 3.44772 3 4V11C3 11.5523 3.44772 12 4 12H11C11.5523 12 12 11.5523 12 11V4C12 3.44772 11.5523 3 11 3H4Z" fill="currentColor"/>
<path fill-rule="evenodd" clip-rule="evenodd" d="M5.5 6.25C5.91421 6.25 6.25 5.91421 6.25 5.5C6.25 5.08579 5.91421 4.75 5.5 4.75C5.08579 4.75 4.75 5.08579 4.75 5.5C4.75 5.91421 5.08579 6.25 5.5 6.25Z" fill="currentColor"/>
<path fill-rule="evenodd" clip-rule="evenodd" d="M7.5 8.25C7.91421 8.25 8.25 7.91421 8.25 7.5C8.25 7.08579 7.91421 6.75 7.5 6.75C7.08579 6.75 6.75 7.08579 6.75 7.5C6.75 7.91421 7.08579 8.25 7.5 8.25Z" fill="currentColor"/>
<path fill-rule="evenodd" clip-rule="evenodd" d="M9.5 10.25C9.91421 10.25 10.25 9.91421 10.25 9.5C10.25 9.08579 9.91421 8.75 9.5 8.75C9.08579 8.75 8.75 9.08579 8.75 9.5C8.75 9.91421 9.08579 10.25 9.5 10.25Z" fill="currentColor"/>
</svg>
