<svg viewBox="0 0 15 15" fill="currentColor" xmlns="http://www.w3.org/2000/svg">
<path fill-rule="evenodd" clip-rule="evenodd" d="M2.69552 3.0932L9.457 1.28147C10.524 0.995577 11.6206 1.62875 11.9065 2.69568L13.7182 9.45716C14.0041 10.5241 13.371 11.6208 12.304 11.9067L5.54253 13.7184C4.4756 14.0043 3.37893 13.3711 3.09304 12.3042L1.28131 5.54269C0.995426 4.47576 1.62859 3.37909 2.69552 3.0932ZM2.95434 4.05913C2.42088 4.20207 2.1043 4.75041 2.24724 5.28387L4.05897 12.0454C4.20191 12.5788 4.75025 12.8954 5.28371 12.7525L12.0452 10.9407C12.5787 10.7978 12.8952 10.2495 12.7523 9.71598L10.9406 2.9545C10.7976 2.42104 10.2493 2.10445 9.71582 2.24739L2.95434 4.05913Z" fill="currentColor"/>
<path fill-rule="evenodd" clip-rule="evenodd" d="M5.24439 6.81016C5.64449 6.70295 5.88193 6.2917 5.77472 5.8916C5.66752 5.4915 5.25626 5.25406 4.85616 5.36127C4.45607 5.46847 4.21863 5.87973 4.32583 6.27983C4.43304 6.67992 4.8443 6.91736 5.24439 6.81016Z" fill="currentColor"/>
<path fill-rule="evenodd" clip-rule="evenodd" d="M7.69388 8.22437C8.09398 8.11717 8.33142 7.70591 8.22421 7.30581C8.11701 6.90572 7.70575 6.66828 7.30565 6.77548C6.90556 6.88269 6.66812 7.29395 6.77532 7.69404C6.88253 8.09414 7.29379 8.33158 7.69388 8.22437Z" fill="currentColor"/>
<path fill-rule="evenodd" clip-rule="evenodd" d="M10.1434 9.63858C10.5435 9.53138 10.7809 9.12012 10.6737 8.72003C10.5665 8.31993 10.1552 8.08249 9.75514 8.1897C9.35505 8.2969 9.11761 8.70816 9.22481 9.10825C9.33202 9.50835 9.74328 9.74579 10.1434 9.63858Z" fill="currentColor"/>
</svg>
