<svg viewBox="0 0 15 15" fill="currentColor" xmlns="http://www.w3.org/2000/svg">
<path fill-rule="evenodd" clip-rule="evenodd" d="M4.5 5C4.77614 5 5 4.77614 5 4.5C5 4.22386 4.77614 4 4.5 4C4.22386 4 4 4.22386 4 4.5C4 4.77614 4.22386 5 4.5 5ZM4.5 6.5C5.60457 6.5 6.5 5.60457 6.5 4.5C6.5 3.39543 5.60457 2.5 4.5 2.5C3.39543 2.5 2.5 3.39543 2.5 4.5C2.5 5.60457 3.39543 6.5 4.5 6.5Z" fill="currentColor"/>
<path fill-rule="evenodd" clip-rule="evenodd" d="M4.5 11C4.77614 11 5 10.7761 5 10.5C5 10.2239 4.77614 10 4.5 10C4.22386 10 4 10.2239 4 10.5C4 10.7761 4.22386 11 4.5 11ZM4.5 12.5C5.60457 12.5 6.5 11.6046 6.5 10.5C6.5 9.39543 5.60457 8.5 4.5 8.5C3.39543 8.5 2.5 9.39543 2.5 10.5C2.5 11.6046 3.39543 12.5 4.5 12.5Z" fill="currentColor"/>
<path fill-rule="evenodd" clip-rule="evenodd" d="M10.5 5C10.7761 5 11 4.77614 11 4.5C11 4.22386 10.7761 4 10.5 4C10.2239 4 10 4.22386 10 4.5C10 4.77614 10.2239 5 10.5 5ZM10.5 6.5C11.6046 6.5 12.5 5.60457 12.5 4.5C12.5 3.39543 11.6046 2.5 10.5 2.5C9.39543 2.5 8.5 3.39543 8.5 4.5C8.5 5.60457 9.39543 6.5 10.5 6.5Z" fill="currentColor"/>
<path fill-rule="evenodd" clip-rule="evenodd" d="M10.5 11C10.7761 11 11 10.7761 11 10.5C11 10.2239 10.7761 10 10.5 10C10.2239 10 10 10.2239 10 10.5C10 10.7761 10.2239 11 10.5 11ZM10.5 12.5C11.6046 12.5 12.5 11.6046 12.5 10.5C12.5 9.39543 11.6046 8.5 10.5 8.5C9.39543 8.5 8.5 9.39543 8.5 10.5C8.5 11.6046 9.39543 12.5 10.5 12.5Z" fill="currentColor"/>
</svg>
