<svg width="15" height="15" viewBox="0 0 15 15" fill="none" xmlns="http://www.w3.org/2000/svg">
<path fill-rule="evenodd" clip-rule="evenodd" d="M8.79858 3.27075C9.21201 3.0922 9.65591 3 10.1047 3C10.5536 3 10.9975 3.0922 11.4109 3.27075C11.8243 3.44927 12.1985 3.71035 12.5127 4.038C12.8269 4.36542 13.0752 4.75304 13.2442 5.17823C13.4132 5.60345 13.5 6.05855 13.5 6.5177C13.5 6.97685 13.4132 7.43196 13.2442 7.85718C13.0751 8.2824 12.8269 8.67005 12.5126 8.99749C12.5126 8.99752 12.5126 8.99747 12.5126 8.99749L7.86066 13.8462C7.76636 13.9444 7.63606 14 7.49986 14C7.36366 14 7.23336 13.9444 7.13906 13.8462L2.48712 8.99749C1.85287 8.33641 1.5 7.44405 1.5 6.5177C1.5 5.59136 1.85287 4.699 2.48712 4.03791C3.12206 3.37613 3.98774 3.00029 4.89498 3.00029C5.80223 3.00029 6.66791 3.37613 7.30284 4.03791L7.49986 4.24326L7.69679 4.038C7.69682 4.03797 7.69677 4.03803 7.69679 4.038C8.01099 3.71039 8.38524 3.44926 8.79858 3.27075ZM11.7909 4.73015C11.5676 4.49725 11.3035 4.31365 11.0144 4.18879C10.7254 4.06396 10.4163 4 10.1047 4C9.79316 4 9.48411 4.06396 9.19506 4.18879C8.90595 4.31365 8.6419 4.49724 8.41855 4.73015L7.86066 5.31163C7.76636 5.40991 7.63606 5.46547 7.49986 5.46547C7.36366 5.46547 7.23336 5.40991 7.13906 5.31163L6.58125 4.73023C6.13036 4.26027 5.52333 4.00029 4.89498 4.00029C4.26663 4.00029 3.65961 4.26027 3.20872 4.73023C2.75715 5.2009 2.5 5.84352 2.5 6.5177C2.5 7.19189 2.75715 7.83451 3.20872 8.30518L7.49986 12.7778L11.791 8.30518C12.0145 8.07235 12.1929 7.7947 12.3149 7.48776C12.437 7.1808 12.5 6.85111 12.5 6.5177C12.5 6.1843 12.437 5.85461 12.3149 5.54764C12.1929 5.24071 12.0144 4.96298 11.7909 4.73015Z" fill="#16151E" fill-opacity="0.5"/>
</svg>
