<svg width="15" height="15" viewBox="0 0 15 15" fill="none" xmlns="http://www.w3.org/2000/svg">
<path fill-rule="evenodd" clip-rule="evenodd" d="M8.79858 3.27075C9.21201 3.0922 9.65591 3 10.1047 3C10.5536 3 10.9975 3.0922 11.4109 3.27075C11.8243 3.44927 12.1985 3.71035 12.5127 4.038C12.8269 4.36542 13.0752 4.75304 13.2442 5.17823C13.4132 5.60345 13.5 6.05855 13.5 6.5177C13.5 6.97685 13.4132 7.43196 13.2442 7.85718C13.0751 8.2824 12.8269 8.67005 12.5126 8.99749L7.86066 13.8462C7.76636 13.9444 7.63606 14 7.49986 14C7.36366 14 7.23336 13.9444 7.13906 13.8462L2.48712 8.99749C1.85287 8.33641 1.5 7.44405 1.5 6.5177C1.5 5.59136 1.85287 4.699 2.48712 4.03791C3.12206 3.37613 3.98774 3.00029 4.89498 3.00029C5.80223 3.00029 6.66791 3.37613 7.30284 4.03791L7.49986 4.24326L7.69679 4.038C8.01099 3.71039 8.38524 3.44926 8.79858 3.27075Z" fill="#FC664F"/>
</svg>
