<svg  viewBox="0 0 15 15" fill="none" xmlns="http://www.w3.org/2000/svg">
<path fill-rule="evenodd" clip-rule="evenodd" d="M4.375 2.25C2.92525 2.25 1.75 3.42525 1.75 4.875V11.125C1.75 12.5747 2.92525 13.75 4.375 13.75H10.625C12.0747 13.75 13.25 12.5747 13.25 11.125V4.875C13.25 3.42525 12.0747 2.25 10.625 2.25H4.375ZM0.75 4.875C0.75 2.87297 2.37297 1.25 4.375 1.25H10.625C12.627 1.25 14.25 2.87297 14.25 4.875V11.125C14.25 13.127 12.627 14.75 10.625 14.75H4.375C2.37297 14.75 0.75 13.127 0.75 11.125V4.875Z" fill="currentColor"/>
<path fill-rule="evenodd" clip-rule="evenodd" d="M7.82047 5.9946C7.40435 5.93289 6.97936 6.00397 6.60596 6.19772C6.23256 6.39147 5.92976 6.69802 5.74063 7.07378C5.5515 7.44954 5.48567 7.87537 5.5525 8.2907C5.61934 8.70603 5.81543 9.08972 6.11289 9.38718C6.41035 9.68464 6.79403 9.88073 7.20936 9.94756C7.62469 10.0144 8.05052 9.94856 8.42628 9.75943C8.80204 9.5703 9.1086 9.2675 9.30235 8.8941C9.4961 8.5207 9.56717 8.09572 9.50547 7.6796C9.44253 7.25514 9.24474 6.86217 8.94132 6.55875C8.63789 6.25533 8.24493 6.05754 7.82047 5.9946ZM6.14539 5.31009C6.70549 5.01947 7.34297 4.91285 7.96715 5.00541C8.60384 5.09983 9.19329 5.39651 9.64842 5.85164C10.1036 6.30678 10.4002 6.89622 10.4947 7.53291C10.5872 8.1571 10.4806 8.79458 10.19 9.35468C9.89935 9.91477 9.43951 10.369 8.87587 10.6527C8.31223 10.9364 7.67349 11.0351 7.05049 10.9349C6.4275 10.8346 5.85197 10.5405 5.40578 10.0943C4.95959 9.64809 4.66545 9.07257 4.5652 8.44957C4.46495 7.82658 4.5637 7.18783 4.8474 6.62419C5.13109 6.06055 5.58529 5.60072 6.14539 5.31009Z" fill="currentColor"/>
<path fill-rule="evenodd" clip-rule="evenodd" d="M10.4375 4.5625C10.4375 4.28636 10.6614 4.0625 10.9375 4.0625H10.9442C11.2203 4.0625 11.4442 4.28636 11.4442 4.5625C11.4442 4.83864 11.2203 5.0625 10.9442 5.0625H10.9375C10.6614 5.0625 10.4375 4.83864 10.4375 4.5625Z" fill="currentColor"/>
</svg>
