<svg  viewBox="0 0 15 15" fill="none" xmlns="http://www.w3.org/2000/svg">
<path fill-rule="evenodd" clip-rule="evenodd" d="M2.6346 2.6346C3.04093 2.22827 3.59203 2 4.16667 2C4.7413 2 5.2924 2.22827 5.69873 2.6346C6.10506 3.04093 6.33333 3.59203 6.33333 4.16667V5.33333H8.66667V4.16667C8.66667 3.59203 8.89494 3.04093 9.30127 2.6346C9.7076 2.22827 10.2587 2 10.8333 2C11.408 2 11.9591 2.22827 12.3654 2.6346C12.7717 3.04093 13 3.59203 13 4.16667C13 4.7413 12.7717 5.2924 12.3654 5.69873C11.9591 6.10506 11.408 6.33333 10.8333 6.33333H9.66667V8.66667H10.8333C11.408 8.66667 11.9591 8.89494 12.3654 9.30127C12.7717 9.7076 13 10.2587 13 10.8333C13 11.408 12.7717 11.9591 12.3654 12.3654C11.9591 12.7717 11.408 13 10.8333 13C10.2587 13 9.7076 12.7717 9.30127 12.3654C8.89494 11.9591 8.66667 11.408 8.66667 10.8333V9.66667H6.33333V10.8333C6.33333 11.408 6.10506 11.9591 5.69873 12.3654C5.2924 12.7717 4.7413 13 4.16667 13C3.59203 13 3.04093 12.7717 2.6346 12.3654C2.22827 11.9591 2 11.408 2 10.8333C2 10.2587 2.22827 9.7076 2.6346 9.30127C3.04093 8.89494 3.59203 8.66667 4.16667 8.66667H5.33333V6.33333H4.16667C3.59203 6.33333 3.04093 6.10506 2.6346 5.69873C2.22827 5.2924 2 4.7413 2 4.16667C2 3.59203 2.22827 3.04093 2.6346 2.6346ZM5.33333 5.33333V4.16667C5.33333 3.85725 5.21042 3.5605 4.99162 3.34171C4.77283 3.12292 4.47609 3 4.16667 3C3.85725 3 3.5605 3.12292 3.34171 3.34171C3.12292 3.5605 3 3.85725 3 4.16667C3 4.47609 3.12292 4.77283 3.34171 4.99162C3.5605 5.21042 3.85725 5.33333 4.16667 5.33333H5.33333ZM6.33333 6.33333V8.66667H8.66667V6.33333H6.33333ZM5.33333 9.66667H4.16667C3.85725 9.66667 3.5605 9.78958 3.34171 10.0084C3.12292 10.2272 3 10.5239 3 10.8333C3 11.1428 3.12292 11.4395 3.34171 11.6583C3.5605 11.8771 3.85725 12 4.16667 12C4.47609 12 4.77283 11.8771 4.99162 11.6583C5.21042 11.4395 5.33333 11.1428 5.33333 10.8333V9.66667ZM9.66667 9.66667V10.8333C9.66667 11.1428 9.78958 11.4395 10.0084 11.6583C10.2272 11.8771 10.5239 12 10.8333 12C11.1428 12 11.4395 11.8771 11.6583 11.6583C11.8771 11.4395 12 11.1428 12 10.8333C12 10.5239 11.8771 10.2272 11.6583 10.0084C11.4395 9.78958 11.1428 9.66667 10.8333 9.66667H9.66667ZM9.66667 5.33333H10.8333C11.1428 5.33333 11.4395 5.21042 11.6583 4.99162C11.8771 4.77283 12 4.47609 12 4.16667C12 3.85725 11.8771 3.5605 11.6583 3.34171C11.4395 3.12292 11.1428 3 10.8333 3C10.5239 3 10.2272 3.12292 10.0084 3.34171C9.78958 3.5605 9.66667 3.85725 9.66667 4.16667V5.33333Z" fill="currentColor"/>
</svg>
