<svg width="15" height="15" viewBox="0 0 15 15" fill="none" xmlns="http://www.w3.org/2000/svg">
<path fill-rule="evenodd" clip-rule="evenodd" d="M7.23348 5.69632C7.23348 3.96887 8.63347 2.5686 10.3601 2.5686C11.3737 2.5686 12.1831 3.04807 12.7255 3.74388C13.308 3.6247 13.8558 3.40916 14.3514 3.11511C14.156 3.72601 13.7425 4.23963 13.2034 4.56466C13.2039 4.56571 13.2043 4.56677 13.2048 4.56782C13.7335 4.50364 14.2365 4.36305 14.7049 4.15549L14.7038 4.15718C14.3668 4.66186 13.9432 5.10739 13.4562 5.47037C13.4824 5.64675 13.4957 5.8243 13.4957 6.00082C13.4957 9.68713 10.6874 13.9746 5.52134 13.9746C3.93918 13.9746 2.46556 13.511 1.22517 12.7152C0.992754 12.5661 0.92523 12.2568 1.07435 12.0244C1.08752 12.0038 1.10195 11.9846 1.11746 11.9666C1.20594 11.8202 1.3745 11.7309 1.55552 11.7522C2.47078 11.8601 3.3858 11.7485 4.19231 11.3962C3.39238 11.0434 2.77141 10.3598 2.50216 9.51977C2.45371 9.36863 2.48847 9.20314 2.59363 9.08425C2.59728 9.08013 2.60099 9.07609 2.60476 9.07213C1.96403 8.50822 1.55985 7.68211 1.55985 6.76146V6.72762C1.55985 6.56817 1.64423 6.42062 1.78167 6.33977C1.82683 6.3132 1.87549 6.29514 1.92544 6.28561C1.70561 5.86157 1.58128 5.37987 1.58128 4.86961C1.58128 4.40168 1.58396 3.81195 1.91344 3.28084C1.9873 3.16178 2.1077 3.08918 2.23652 3.07198C2.426 3.0124 2.64099 3.06972 2.77418 3.23305C3.86548 4.57129 5.44078 5.49586 7.23378 5.73964L7.23348 5.69632ZM5.52134 12.9746C4.73399 12.9746 3.97793 12.8435 3.2726 12.6023C4.13024 12.4538 4.95319 12.1159 5.6623 11.5602C5.81223 11.4427 5.87194 11.2435 5.81138 11.0629C5.75082 10.8824 5.58312 10.7595 5.39267 10.7561C4.6898 10.7437 4.06724 10.3972 3.67805 9.86848C3.8684 9.85309 4.0544 9.82042 4.23457 9.7717C4.43615 9.71719 4.57375 9.53117 4.56686 9.32246C4.55997 9.11375 4.41041 8.93721 4.20567 8.8961C3.42706 8.7398 2.79895 8.16767 2.56181 7.42177C2.76267 7.47028 2.97114 7.49913 3.18494 7.50613C3.38575 7.5127 3.56658 7.38536 3.62807 7.19408C3.68955 7.0028 3.61678 6.79394 3.44975 6.68227C2.86535 6.29158 2.48128 5.62467 2.48128 4.86961C2.48128 4.70216 2.48364 4.55271 2.49367 4.41722C3.85127 5.79916 5.70885 6.68934 7.776 6.79341C7.93237 6.80129 8.0834 6.73546 8.18407 6.61556C8.28475 6.49565 8.32344 6.33551 8.28863 6.18287C8.25267 6.0252 8.23348 5.86287 8.23348 5.69632C8.23348 4.52088 9.18603 3.5686 10.3601 3.5686C11.5944 3.5686 12.4957 4.71211 12.4957 6.00082C12.4957 9.25712 10.0203 12.9746 5.52134 12.9746Z" fill="#16151E" fill-opacity="0.5"/>
</svg>
