<svg width="15" height="15" viewBox="0 0 15 15" fill="none" xmlns="http://www.w3.org/2000/svg">
<path fill-rule="evenodd" clip-rule="evenodd" d="M2.5 7.5C2.5 4.73858 4.73858 2.5 7.5 2.5C10.2614 2.5 12.5 4.73858 12.5 7.5C12.5 10.2614 10.2614 12.5 7.5 12.5C4.73858 12.5 2.5 10.2614 2.5 7.5ZM7.5 1.5C4.18629 1.5 1.5 4.18629 1.5 7.5C1.5 10.8137 4.18629 13.5 7.5 13.5C10.8137 13.5 13.5 10.8137 13.5 7.5C13.5 4.18629 10.8137 1.5 7.5 1.5ZM10.3063 5.32608C10.3662 5.14642 10.3194 4.94833 10.1855 4.81442C10.0516 4.6805 9.85352 4.63374 9.67385 4.69363L6.17585 5.85963C6.02655 5.90939 5.90939 6.02655 5.85963 6.17585L4.69363 9.67385C4.63374 9.85352 4.6805 10.0516 4.81442 10.1855C4.94833 10.3194 5.14642 10.3662 5.32608 10.3063L8.82408 9.14031C8.97338 9.09054 9.09054 8.97338 9.14031 8.82408L10.3063 5.32608ZM5.95854 9.0414L6.72925 6.72925L9.0414 5.95854L8.27068 8.27068L5.95854 9.0414Z" fill="#16151E" fill-opacity="0.5"/>
</svg>
